<?xml version="1.0" standalone="no"?>
<!DOCTYPE svg PUBLIC "-//W3C//DTD SVG 20010904//EN"
 "http://www.w3.org/TR/2001/REC-SVG-20010904/DTD/svg10.dtd">
<svg version="1.0" xmlns="http://www.w3.org/2000/svg"
 width="16.000000pt" height="16.000000pt" viewBox="0 0 16.000000 16.000000"
 preserveAspectRatio="xMidYMid meet">

<g transform="translate(0.000000,16.000000) scale(0.100000,-0.100000)"
fill="#000000" stroke="none">
<path d="M0 80 l0 -80 80 0 80 0 0 80 0 80 -80 0 -80 0 0 -80z m150 0 l0 -70
-70 0 -70 0 0 70 0 70 70 0 70 0 0 -70z"/>
<path d="M30 80 c0 -27 5 -50 10 -50 6 0 10 19 10 42 0 39 1 40 18 25 14 -13
21 -14 30 -5 9 9 12 4 12 -25 0 -20 5 -37 10 -37 6 0 10 23 10 50 0 52 -8 61
-30 35 -12 -14 -15 -14 -30 0 -30 27 -40 18 -40 -35z"/>
</g>
</svg>
